<svg width="340" height="310" viewBox="0 0 340 310" fill="none" xmlns="http://www.w3.org/2000/svg">
<path d="M244.761 155C212.634 186.171 186.083 224.423 170 263.743C153.918 224.423 127.366 186.171 95.2392 155C128.065 123.16 153.975 86.5659 170 46.2567C186.026 86.5659 211.935 123.16 244.761 155Z" fill="black"/>
<path d="M44.4373 207.96C38.4207 191.477 35.1441 173.684 35.1441 155.119C35.1441 136.554 38.4278 118.762 44.4445 102.279C60.9706 56.964 98.158 21.5867 144.603 7.53589C147.852 6.55094 151.148 5.67041 154.486 4.89871C156.788 4.36645 156.624 0.946899 154.261 0.946899C144.982 0.946899 135.903 1.76247 127.075 3.33639C77.9618 12.0716 36.8897 44.0722 15.6633 87.5338C5.68321 107.938 0.0886536 130.881 0.0886536 155.119C0.0886536 179.365 5.68322 202.301 15.6561 222.712C36.8897 266.173 77.9618 298.167 127.075 306.902C135.903 308.476 144.982 309.292 154.261 309.292C156.624 309.292 156.788 305.872 154.486 305.34C151.148 304.568 147.852 303.688 144.603 302.703C98.1509 288.659 60.9706 253.274 44.4373 207.96Z" fill="black"/>
<path d="M185.739 309.292C183.813 309.292 183.695 306.497 185.582 306.108C255.711 291.636 308.433 229.535 308.433 155.119C308.433 80.7039 255.711 18.6025 185.582 4.13045C183.695 3.74114 183.813 0.946899 185.739 0.946899C270.886 0.946899 339.912 69.9722 339.912 155.119C339.912 240.266 270.886 309.292 185.739 309.292Z" fill="black"/>
</svg>
